<svg width="207" height="65" viewBox="0 0 207 65" fill="none" xmlns="http://www.w3.org/2000/svg">
<path d="M185 6C179.47 6 175 10.47 175 16C175 21.53 179.47 26 185 26C190.53 26 195 21.53 195 16C195 10.47 190.53 6 185 6ZM188.1 11.07C188.24 11.07 188.38 11.12 188.5 11.23L189.77 12.5C190 12.72 190 13.07 189.77 13.28L188.77 14.28L186.72 12.23L187.72 11.23C187.82 11.12 187.96 11.07 188.1 11.07ZM186.13 12.81L188.19 14.87L182.13 20.93H180.07V18.87L186.13 12.81Z" fill="currentColor"/>
<path d="M3.02344 16.7344H11.7656C15.3281 16.7344 17.9219 17.4297 19.5469 18.8203C21.1719 20.1953 21.9844 22.3906 21.9844 25.4062C21.9844 27.3906 21.5547 29.0547 20.6953 30.3984C19.8359 31.7266 18.6641 32.5312 17.1797 32.8125V33.0469C19.1172 33.5312 20.5156 34.4375 21.375 35.7656C22.2344 37.0938 22.6641 38.8594 22.6641 41.0625C22.6641 44.1719 21.8281 46.6094 20.1562 48.375C18.5 50.125 16.2266 51 13.3359 51H3.02344V16.7344ZM9.02344 30.5156H11.9531C13.2969 30.5156 14.2422 30.1562 14.7891 29.4375C15.3359 28.7188 15.6094 27.6484 15.6094 26.2266C15.6094 24.8047 15.2969 23.7891 14.6719 23.1797C14.0469 22.5547 13.0625 22.2422 11.7188 22.2422H9.02344V30.5156ZM9.02344 35.8359V45.4219H12.2344C13.5625 45.4219 14.5469 45.0156 15.1875 44.2031C15.8438 43.3906 16.1719 42.1328 16.1719 40.4297C16.1719 37.3672 14.8281 35.8359 12.1406 35.8359H9.02344ZM33.2109 51H26.9766V14.5312H33.2109V51ZM57.7969 37.8984C57.7969 42.1797 56.8906 45.5156 55.0781 47.9062C53.2656 50.2812 50.7812 51.4688 47.625 51.4688C45.625 51.4688 43.8594 50.9219 42.3281 49.8281C40.7969 48.7344 39.6172 47.1641 38.7891 45.1172C37.9609 43.0547 37.5469 40.6484 37.5469 37.8984C37.5469 33.6641 38.4453 30.3594 40.2422 27.9844C42.0391 25.5938 44.5312 24.3984 47.7188 24.3984C50.7969 24.3984 53.2422 25.6172 55.0547 28.0547C56.8828 30.4766 57.7969 33.7578 57.7969 37.8984ZM43.9219 37.8984C43.9219 40.6172 44.2188 42.6719 44.8125 44.0625C45.4062 45.4531 46.3594 46.1484 47.6719 46.1484C50.1719 46.1484 51.4219 43.3984 51.4219 37.8984C51.4219 35.1641 51.1172 33.125 50.5078 31.7812C49.9141 30.4219 48.9688 29.7422 47.6719 29.7422C46.3594 29.7422 45.4062 30.4219 44.8125 31.7812C44.2188 33.125 43.9219 35.1641 43.9219 37.8984ZM80.9766 24.9375V28.5938L77.8594 29.2969C78.4688 30.3906 78.7734 31.7656 78.7734 33.4219C78.7734 36.1875 78.0234 38.3516 76.5234 39.9141C75.0234 41.4766 72.9297 42.2578 70.2422 42.2578C69.4609 42.2578 68.8828 42.1953 68.5078 42.0703C68.2109 42.3359 67.9297 42.6328 67.6641 42.9609C67.3984 43.2891 67.2656 43.6953 67.2656 44.1797C67.2656 45.2734 68.2109 45.8203 70.1016 45.8203H73.875C76.0938 45.8203 77.7969 46.4219 78.9844 47.625C80.1875 48.8125 80.7891 50.6094 80.7891 53.0156C80.7891 56.0469 79.7734 58.3906 77.7422 60.0469C75.7109 61.7031 72.7891 62.5312 68.9766 62.5312C66.0859 62.5312 63.8594 61.8984 62.2969 60.6328C60.7344 59.3828 59.9531 57.5938 59.9531 55.2656C59.9531 53.8125 60.3984 52.5312 61.2891 51.4219C62.1797 50.3281 63.4141 49.5312 64.9922 49.0312C64.1953 48.7188 63.5391 48.2344 63.0234 47.5781C62.5234 46.9219 62.2734 46.1562 62.2734 45.2812C62.2734 44.75 62.3516 44.2734 62.5078 43.8516C62.6641 43.4141 62.8828 43.0078 63.1641 42.6328C63.4609 42.2422 64.0547 41.6719 64.9453 40.9219C63.8672 40.2656 63.0156 39.2578 62.3906 37.8984C61.7656 36.5391 61.4531 35.0312 61.4531 33.375C61.4531 30.5156 62.2031 28.3047 63.7031 26.7422C65.2031 25.1797 67.3516 24.3984 70.1484 24.3984C70.6797 24.3984 71.2891 24.4609 71.9766 24.5859C72.6641 24.6953 73.1875 24.8125 73.5469 24.9375H80.9766ZM65.625 54.7969C65.625 55.8281 65.9453 56.6172 66.5859 57.1641C67.2422 57.7266 68.1719 58.0078 69.375 58.0078C71.2656 58.0078 72.6797 57.6484 73.6172 56.9297C74.5703 56.2109 75.0469 55.2266 75.0469 53.9766C75.0469 52.9922 74.7891 52.2969 74.2734 51.8906C73.7734 51.4844 72.8281 51.2812 71.4375 51.2812H68.4141C67.5703 51.2812 66.8906 51.5938 66.375 52.2188C65.875 52.8594 65.625 53.7188 65.625 54.7969ZM67.5469 33.4219C67.5469 36.5 68.4141 38.0391 70.1484 38.0391C71.8359 38.0391 72.6797 36.4844 72.6797 33.375C72.6797 30.1875 71.8359 28.5938 70.1484 28.5938C68.4141 28.5938 67.5469 30.2031 67.5469 33.4219ZM102.914 24.9375V28.5938L99.7969 29.2969C100.406 30.3906 100.711 31.7656 100.711 33.4219C100.711 36.1875 99.9609 38.3516 98.4609 39.9141C96.9609 41.4766 94.8672 42.2578 92.1797 42.2578C91.3984 42.2578 90.8203 42.1953 90.4453 42.0703C90.1484 42.3359 89.8672 42.6328 89.6016 42.9609C89.3359 43.2891 89.2031 43.6953 89.2031 44.1797C89.2031 45.2734 90.1484 45.8203 92.0391 45.8203H95.8125C98.0312 45.8203 99.7344 46.4219 100.922 47.625C102.125 48.8125 102.727 50.6094 102.727 53.0156C102.727 56.0469 101.711 58.3906 99.6797 60.0469C97.6484 61.7031 94.7266 62.5312 90.9141 62.5312C88.0234 62.5312 85.7969 61.8984 84.2344 60.6328C82.6719 59.3828 81.8906 57.5938 81.8906 55.2656C81.8906 53.8125 82.3359 52.5312 83.2266 51.4219C84.1172 50.3281 85.3516 49.5312 86.9297 49.0312C86.1328 48.7188 85.4766 48.2344 84.9609 47.5781C84.4609 46.9219 84.2109 46.1562 84.2109 45.2812C84.2109 44.75 84.2891 44.2734 84.4453 43.8516C84.6016 43.4141 84.8203 43.0078 85.1016 42.6328C85.3984 42.2422 85.9922 41.6719 86.8828 40.9219C85.8047 40.2656 84.9531 39.2578 84.3281 37.8984C83.7031 36.5391 83.3906 35.0312 83.3906 33.375C83.3906 30.5156 84.1406 28.3047 85.6406 26.7422C87.1406 25.1797 89.2891 24.3984 92.0859 24.3984C92.6172 24.3984 93.2266 24.4609 93.9141 24.5859C94.6016 24.6953 95.125 24.8125 95.4844 24.9375H102.914ZM87.5625 54.7969C87.5625 55.8281 87.8828 56.6172 88.5234 57.1641C89.1797 57.7266 90.1094 58.0078 91.3125 58.0078C93.2031 58.0078 94.6172 57.6484 95.5547 56.9297C96.5078 56.2109 96.9844 55.2266 96.9844 53.9766C96.9844 52.9922 96.7266 52.2969 96.2109 51.8906C95.7109 51.4844 94.7656 51.2812 93.375 51.2812H90.3516C89.5078 51.2812 88.8281 51.5938 88.3125 52.2188C87.8125 52.8594 87.5625 53.7188 87.5625 54.7969ZM89.4844 33.4219C89.4844 36.5 90.3516 38.0391 92.0859 38.0391C93.7734 38.0391 94.6172 36.4844 94.6172 33.375C94.6172 30.1875 93.7734 28.5938 92.0859 28.5938C90.3516 28.5938 89.4844 30.2031 89.4844 33.4219ZM112.336 51H106.102V24.8906H112.336V51ZM105.844 18.0703C105.844 17.0391 106.141 16.2266 106.734 15.6328C107.344 15.0234 108.188 14.7188 109.266 14.7188C110.281 14.7188 111.094 15.0234 111.703 15.6328C112.312 16.2266 112.617 17.0391 112.617 18.0703C112.617 19.1328 112.305 19.9609 111.68 20.5547C111.055 21.1328 110.25 21.4219 109.266 21.4219C108.234 21.4219 107.406 21.1328 106.781 20.5547C106.156 19.9609 105.844 19.1328 105.844 18.0703ZM130.688 51V35.4375C130.688 33.5469 130.461 32.1172 130.008 31.1484C129.555 30.1797 128.82 29.6953 127.805 29.6953C126.461 29.6953 125.477 30.3672 124.852 31.7109C124.227 33.0391 123.914 35.2891 123.914 38.4609V51H117.68V24.8906H122.625L123.375 28.2422H123.773C124.336 27.0391 125.141 26.1016 126.188 25.4297C127.234 24.7422 128.461 24.3984 129.867 24.3984C132.242 24.3984 134.016 25.2109 135.188 26.8359C136.375 28.4609 136.969 30.8359 136.969 33.9609V51H130.688ZM160.805 24.9375V28.5938L157.688 29.2969C158.297 30.3906 158.602 31.7656 158.602 33.4219C158.602 36.1875 157.852 38.3516 156.352 39.9141C154.852 41.4766 152.758 42.2578 150.07 42.2578C149.289 42.2578 148.711 42.1953 148.336 42.0703C148.039 42.3359 147.758 42.6328 147.492 42.9609C147.227 43.2891 147.094 43.6953 147.094 44.1797C147.094 45.2734 148.039 45.8203 149.93 45.8203H153.703C155.922 45.8203 157.625 46.4219 158.812 47.625C160.016 48.8125 160.617 50.6094 160.617 53.0156C160.617 56.0469 159.602 58.3906 157.57 60.0469C155.539 61.7031 152.617 62.5312 148.805 62.5312C145.914 62.5312 143.688 61.8984 142.125 60.6328C140.562 59.3828 139.781 57.5938 139.781 55.2656C139.781 53.8125 140.227 52.5312 141.117 51.4219C142.008 50.3281 143.242 49.5312 144.82 49.0312C144.023 48.7188 143.367 48.2344 142.852 47.5781C142.352 46.9219 142.102 46.1562 142.102 45.2812C142.102 44.75 142.18 44.2734 142.336 43.8516C142.492 43.4141 142.711 43.0078 142.992 42.6328C143.289 42.2422 143.883 41.6719 144.773 40.9219C143.695 40.2656 142.844 39.2578 142.219 37.8984C141.594 36.5391 141.281 35.0312 141.281 33.375C141.281 30.5156 142.031 28.3047 143.531 26.7422C145.031 25.1797 147.18 24.3984 149.977 24.3984C150.508 24.3984 151.117 24.4609 151.805 24.5859C152.492 24.6953 153.016 24.8125 153.375 24.9375H160.805ZM145.453 54.7969C145.453 55.8281 145.773 56.6172 146.414 57.1641C147.07 57.7266 148 58.0078 149.203 58.0078C151.094 58.0078 152.508 57.6484 153.445 56.9297C154.398 56.2109 154.875 55.2266 154.875 53.9766C154.875 52.9922 154.617 52.2969 154.102 51.8906C153.602 51.4844 152.656 51.2812 151.266 51.2812H148.242C147.398 51.2812 146.719 51.5938 146.203 52.2188C145.703 52.8594 145.453 53.7188 145.453 54.7969ZM147.375 33.4219C147.375 36.5 148.242 38.0391 149.977 38.0391C151.664 38.0391 152.508 36.4844 152.508 33.375C152.508 30.1875 151.664 28.5938 149.977 28.5938C148.242 28.5938 147.375 30.2031 147.375 33.4219ZM177.961 43.3594C177.961 45.9062 177.211 47.8984 175.711 49.3359C174.227 50.7578 172.031 51.4688 169.125 51.4688C166.547 51.4688 164.414 50.9609 162.727 49.9453V44.5312C163.586 45.125 164.586 45.6172 165.727 46.0078C166.883 46.3984 167.898 46.5938 168.773 46.5938C169.742 46.5938 170.477 46.3594 170.977 45.8906C171.492 45.4062 171.75 44.7734 171.75 43.9922C171.75 43.1953 171.484 42.5 170.953 41.9062C170.422 41.3125 169.445 40.5859 168.023 39.7266C166.133 38.6016 164.773 37.4062 163.945 36.1406C163.133 34.8594 162.727 33.3516 162.727 31.6172C162.727 29.3984 163.484 27.6406 165 26.3438C166.531 25.0469 168.625 24.3984 171.281 24.3984C173.594 24.3984 175.773 25.0078 177.82 26.2266L175.781 30.7031C174.109 29.7969 172.641 29.3438 171.375 29.3438C170.578 29.3438 169.977 29.5547 169.57 29.9766C169.18 30.3984 168.984 30.9141 168.984 31.5234C168.984 32.2266 169.227 32.8516 169.711 33.3984C170.211 33.9453 171.133 34.625 172.477 35.4375C174.102 36.4219 175.242 37.2578 175.898 37.9453C176.555 38.6328 177.062 39.4141 177.422 40.2891C177.781 41.1641 177.961 42.1875 177.961 43.3594Z" fill="currentColor"/>
</svg>
